<svg width="26" height="26" viewBox="0 0 26 26" fill="none" xmlns="http://www.w3.org/2000/svg">
<g clip-path="url(#clip0_61_327)">
<path d="M15.7625 26H10.2375C4.63125 26 0 21.3687 0 15.7625V10.2375C0 4.63125 4.63125 0 10.2375 0H15.7625C21.3687 0 26 4.63125 26 10.2375V15.7625C26 21.3687 21.3687 26 15.7625 26ZM10.2375 2.4375C5.93125 2.4375 2.4375 5.93125 2.4375 10.2375V15.7625C2.4375 20.0688 5.93125 23.5625 10.2375 23.5625H15.7625C20.0688 23.5625 23.5625 20.0688 23.5625 15.7625V10.2375C23.5625 5.93125 20.0688 2.4375 15.7625 2.4375H10.2375Z" fill="white"/>
<path d="M13 19.0938C12.35 19.0938 11.7812 18.525 11.7812 17.875V8.125C11.7812 7.475 12.35 6.90625 13 6.90625C13.65 6.90625 14.2188 7.475 14.2188 8.125V17.875C14.2188 18.525 13.65 19.0938 13 19.0938Z" fill="white"/>
<path d="M17.875 14.2188H8.125C7.475 14.2188 6.90625 13.65 6.90625 13C6.90625 12.35 7.475 11.7812 8.125 11.7812H17.875C18.525 11.7812 19.0938 12.35 19.0938 13C19.0938 13.65 18.525 14.2188 17.875 14.2188Z" fill="white"/>
</g>
<defs>
<clipPath id="clip0_61_327">
<rect width="26" height="26" fill="white"/>
</clipPath>
</defs>
</svg>
