<svg width="30" height="30" viewBox="0 0 30 30" fill="none" xmlns="http://www.w3.org/2000/svg">
<path d="M25.6114 25.6123C19.7586 31.4639 10.2404 31.4639 4.38767 25.6123C-1.46256 19.7608 -1.46256 10.2402 4.38767 4.38865C7.31404 1.46351 11.1571 0.0016098 15.0002 0.0016098C18.8433 0.0016098 22.685 1.46357 25.6114 4.38865C31.4629 10.2401 31.4629 19.7608 25.6114 25.6123ZM21.1893 10.579C21.6782 10.0901 21.6782 9.2997 21.1893 8.81074C20.9454 8.56687 20.6253 8.4443 20.3051 8.4443C19.985 8.4443 19.6648 8.56687 19.4209 8.81074L15.0001 13.2328L10.5805 8.81203C10.3354 8.56816 10.0152 8.44559 9.69635 8.44559C9.37622 8.44559 9.05603 8.56816 8.81216 8.81203C8.3232 9.30099 8.3232 10.0926 8.81216 10.5803L13.2317 15.0011L8.81093 19.4219C8.32197 19.9109 8.32197 20.7025 8.81093 21.1903C9.29866 21.6792 10.0903 21.6792 10.5792 21.1903L15 16.7694L19.4208 21.1903C19.9098 21.6792 20.7002 21.6792 21.1892 21.1903C21.6781 20.7025 21.6781 19.9109 21.1892 19.4219L16.7684 15.0011L21.1893 10.579Z" fill="#BFBFC2"/>
</svg>
