<svg width="35" height="35" viewBox="0 0 35 35" fill="none" xmlns="http://www.w3.org/2000/svg">
<path d="M0 9.02611V22.2878C0 23.043 0.61203 23.655 1.36719 23.655C2.12234 23.655 2.73438 23.043 2.73438 22.2878V13.1277L27.1387 13.1279C27.8938 13.1279 28.5059 12.5159 28.5059 11.7607C28.5059 11.0056 27.8938 10.3936 27.1387 10.3936L2.73438 10.3933V9.02611C2.73438 8.66081 2.87643 8.31768 3.13465 8.0592C3.39287 7.80125 3.73627 7.65892 4.1013 7.65919L20.2344 7.65892C20.9895 7.65892 21.6016 7.04689 21.6016 6.29173V6.15395C21.6016 4.64657 22.828 3.4201 24.3354 3.41957L29.5318 3.41797C31.0389 3.41797 32.2656 4.6447 32.2656 6.15234V15.2399C32.2656 15.2423 32.2654 15.2447 32.2654 15.2471L32.2656 27.2805C32.2656 28.7884 31.0389 30.0148 29.5312 30.0148H15.5176C14.7624 30.0148 14.1504 30.6269 14.1504 31.382C14.1504 32.1372 14.7624 32.7492 15.5176 32.7492H29.5312C32.5468 32.7492 35 30.296 35 27.2805L34.9997 18.9433C34.9997 18.9414 35 18.9398 35 18.9382V6.15234C35 3.13679 32.5468 0.683594 29.5312 0.683594L24.3346 0.685196C21.7426 0.68573 19.566 2.49966 19.0066 4.92428L4.10156 4.92455H4.10076C3.00568 4.92455 1.97601 5.35126 1.20136 6.12564C0.426712 6.90029 0 7.93049 0 9.02611ZM1.36719 26.3894H5.12695V22.6296C5.12695 21.8745 5.73898 21.2624 6.49414 21.2624C7.2493 21.2624 7.86133 21.8745 7.86133 22.6296V26.3894H11.6211C12.3763 26.3894 12.9883 27.0014 12.9883 27.7566C12.9883 28.5117 12.3763 29.1238 11.6211 29.1238H7.86133V32.8835C7.86133 33.6387 7.2493 34.2507 6.49414 34.2507C5.73898 34.2507 5.12695 33.6387 5.12695 32.8835V29.1238H1.36719C0.61203 29.1238 0 28.5117 0 27.7566C0 27.0014 0.61203 26.3894 1.36719 26.3894Z" fill="white"/>
</svg>
