<svg width="18" height="18" viewBox="0 0 18 18" fill="none" xmlns="http://www.w3.org/2000/svg">
<g clip-path="url(#clip0_41_1664)">
<path d="M14.7316 7.81191L14.7211 7.80137L10.1859 3.2627C10.1859 3.2627 4.65935 8.78926 1.99451 11.5104C1.66404 11.8479 1.41091 12.3189 1.26326 12.776C0.827319 14.1119 0.465209 15.476 0.0609124 16.8225C-0.048072 17.1846 -0.0269782 17.5045 0.257787 17.7717C0.524975 18.0248 0.827319 18.0389 1.17185 17.9334C2.45857 17.5467 3.75232 17.1811 5.04255 16.8119C5.72107 16.6186 6.2906 16.26 6.78982 15.7572C9.3281 13.2084 14.7316 7.81191 14.7316 7.81191Z" fill="white"/>
<path d="M17.3793 2.17266L15.8289 0.622266C14.9992 -0.207422 13.6598 -0.207422 12.8301 0.622266L11.0723 2.38008L15.6215 6.9293L17.3793 5.17148C18.209 4.34531 18.209 3.00234 17.3793 2.17266Z" fill="white"/>
<path d="M8.10898 16.0947H17.0492C17.5766 16.0947 18.002 16.5201 18.002 17.0475C18.002 17.5748 17.5766 18.0002 17.0492 18.0002H8.10898C7.58164 18.0002 7.15625 17.5748 7.15625 17.0475C7.15977 16.5201 7.58516 16.0947 8.10898 16.0947Z" fill="white"/>
</g>
<defs>
<clipPath id="clip0_41_1664">
<rect width="18" height="18" fill="white"/>
</clipPath>
</defs>
</svg>
