<svg width="23" height="23" viewBox="0 0 23 23" fill="none" xmlns="http://www.w3.org/2000/svg">
<g clip-path="url(#clip0_61_472)">
<path d="M14.3748 12.4581C13.8449 12.4581 13.4166 12.8875 13.4166 13.4164V17.2498C13.4166 17.7778 12.9872 18.2081 12.4581 18.2081H9.58317V3.83323C9.58317 3.01482 9.06184 2.28362 8.278 2.01146L7.99425 1.91653H12.4581C12.9872 1.91653 13.4166 2.34679 13.4166 2.87497V5.74994C13.4166 6.27882 13.8449 6.7082 14.3748 6.7082C14.9048 6.7082 15.3331 6.27882 15.3331 5.74994V2.87497C15.3331 1.28991 14.0432 0 12.4581 0H2.15623C2.11973 0 2.0892 0.0163191 2.05375 0.0210569C2.0076 0.0171965 1.96356 0 1.91671 0C0.859648 0 0 0.859473 0 1.91653V19.1663C0 19.9848 0.521334 20.716 1.30518 20.9881L7.07249 22.9106C7.26797 22.971 7.46239 22.9998 7.66664 22.9998C8.7237 22.9998 9.58317 22.1401 9.58317 21.0831V20.1248H12.4581C14.0432 20.1248 15.3331 18.8349 15.3331 17.2498V13.4164C15.3331 12.8875 14.9048 12.4581 14.3748 12.4581Z" fill="white"/>
<path d="M22.7189 8.90628L18.8855 5.07304C18.6115 4.79895 18.1993 4.71648 17.841 4.86493C17.4836 5.01356 17.2497 5.36328 17.2497 5.75055V8.62552H13.4164C12.8874 8.62552 12.458 9.05473 12.458 9.58378C12.458 10.1128 12.8874 10.542 13.4164 10.542H17.2497V13.417C17.2497 13.8043 17.4836 14.154 17.841 14.3026C18.1993 14.4511 18.6115 14.3686 18.8855 14.0947L22.7189 10.2613C23.0935 9.88665 23.0935 9.28091 22.7189 8.90628Z" fill="white"/>
</g>
<defs>
<clipPath id="clip0_61_472">
<rect width="23" height="23" fill="white"/>
</clipPath>
</defs>
</svg>
