<svg width="574" height="557" viewBox="0 0 574 557" fill="none" xmlns="http://www.w3.org/2000/svg">
<circle cx="5" cy="5" r="5" fill="#FF4655"/>
<circle cx="74" cy="5" r="5" fill="#FF4655"/>
<circle cx="144" cy="5" r="5" fill="#FF4655"/>
<circle cx="213" cy="5" r="5" fill="#FF4655"/>
<circle cx="282" cy="5" r="5" fill="#FF4655"/>
<circle cx="351" cy="5" r="5" fill="#FF4655"/>
<circle cx="420" cy="5" r="5" fill="#FF4655"/>
<circle cx="559" cy="5" r="5" fill="#FF4655"/>
<circle cx="490" cy="5" r="5" fill="#FF4655"/>
<circle cx="10" cy="73" r="5" fill="#FF4655"/>
<circle cx="79" cy="73" r="5" fill="#FF4655"/>
<circle cx="149" cy="73" r="5" fill="#FF4655"/>
<circle cx="218" cy="73" r="5" fill="#FF4655"/>
<circle cx="287" cy="73" r="5" fill="#FF4655"/>
<circle cx="356" cy="73" r="5" fill="#FF4655"/>
<circle cx="425" cy="73" r="5" fill="#FF4655"/>
<circle cx="564" cy="73" r="5" fill="#FF4655"/>
<circle cx="495" cy="73" r="5" fill="#FF4655"/>
<circle cx="10" cy="141" r="5" fill="#FF4655"/>
<circle cx="79" cy="141" r="5" fill="#FF4655"/>
<circle cx="149" cy="141" r="5" fill="#FF4655"/>
<circle cx="218" cy="141" r="5" fill="#FF4655"/>
<circle cx="287" cy="141" r="5" fill="#FF4655"/>
<circle cx="356" cy="141" r="5" fill="#FF4655"/>
<circle cx="425" cy="141" r="5" fill="#FF4655"/>
<circle cx="564" cy="141" r="5" fill="#FF4655"/>
<circle cx="495" cy="141" r="5" fill="#FF4655"/>
<circle cx="10" cy="209" r="5" fill="#FF4655"/>
<circle cx="79" cy="209" r="5" fill="#FF4655"/>
<circle cx="149" cy="209" r="5" fill="#FF4655"/>
<circle cx="218" cy="209" r="5" fill="#FF4655"/>
<circle cx="287" cy="209" r="5" fill="#FF4655"/>
<circle cx="356" cy="209" r="5" fill="#FF4655"/>
<circle cx="425" cy="209" r="5" fill="#FF4655"/>
<circle cx="564" cy="209" r="5" fill="#FF4655"/>
<circle cx="495" cy="209" r="5" fill="#FF4655"/>
<circle cx="15" cy="280" r="5" fill="#FF4655"/>
<circle cx="84" cy="280" r="5" fill="#FF4655"/>
<circle cx="154" cy="280" r="5" fill="#FF4655"/>
<circle cx="223" cy="280" r="5" fill="#FF4655"/>
<circle cx="292" cy="280" r="5" fill="#FF4655"/>
<circle cx="361" cy="280" r="5" fill="#FF4655"/>
<circle cx="430" cy="280" r="5" fill="#FF4655"/>
<circle cx="569" cy="280" r="5" fill="#FF4655"/>
<circle cx="500" cy="280" r="5" fill="#FF4655"/>
<circle cx="15" cy="348" r="5" fill="#FF4655"/>
<circle cx="84" cy="348" r="5" fill="#FF4655"/>
<circle cx="154" cy="348" r="5" fill="#FF4655"/>
<circle cx="223" cy="348" r="5" fill="#FF4655"/>
<circle cx="292" cy="348" r="5" fill="#FF4655"/>
<circle cx="361" cy="348" r="5" fill="#FF4655"/>
<circle cx="430" cy="348" r="5" fill="#FF4655"/>
<circle cx="569" cy="348" r="5" fill="#FF4655"/>
<circle cx="500" cy="348" r="5" fill="#FF4655"/>
<circle cx="15" cy="416" r="5" fill="#FF4655"/>
<circle cx="84" cy="416" r="5" fill="#FF4655"/>
<circle cx="154" cy="416" r="5" fill="#FF4655"/>
<circle cx="223" cy="416" r="5" fill="#FF4655"/>
<circle cx="292" cy="416" r="5" fill="#FF4655"/>
<circle cx="361" cy="416" r="5" fill="#FF4655"/>
<circle cx="430" cy="416" r="5" fill="#FF4655"/>
<circle cx="569" cy="416" r="5" fill="#FF4655"/>
<circle cx="500" cy="416" r="5" fill="#FF4655"/>
<circle cx="10" cy="484" r="5" fill="#FF4655"/>
<circle cx="79" cy="484" r="5" fill="#FF4655"/>
<circle cx="149" cy="484" r="5" fill="#FF4655"/>
<circle cx="218" cy="484" r="5" fill="#FF4655"/>
<circle cx="287" cy="484" r="5" fill="#FF4655"/>
<circle cx="356" cy="484" r="5" fill="#FF4655"/>
<circle cx="425" cy="484" r="5" fill="#FF4655"/>
<circle cx="564" cy="484" r="5" fill="#FF4655"/>
<circle cx="495" cy="484" r="5" fill="#FF4655"/>
<circle cx="15" cy="552" r="5" fill="#FF4655"/>
<circle cx="84" cy="552" r="5" fill="#FF4655"/>
<circle cx="154" cy="552" r="5" fill="#FF4655"/>
<circle cx="223" cy="552" r="5" fill="#FF4655"/>
<circle cx="292" cy="552" r="5" fill="#FF4655"/>
<circle cx="361" cy="552" r="5" fill="#FF4655"/>
<circle cx="430" cy="552" r="5" fill="#FF4655"/>
<circle cx="569" cy="552" r="5" fill="#FF4655"/>
<circle cx="500" cy="552" r="5" fill="#FF4655"/>
</svg>
